<?xml version="1.0" encoding="UTF-8"?><svg id="a" xmlns="http://www.w3.org/2000/svg" viewBox="0 0 536.06 58.53"><defs><style>.b{fill:#2a5698;stroke-width:0px;}</style></defs><path class="b" d="M501.29,31.08c.36-3.64,2.81-6.34,6.05-6.34,3.71,0,5.66,2.96,5.95,6.34h-12ZM507.78,41.85c3.53,0,5.8-1.41,7.68-3.5l-1.73-1.55c-1.51,1.59-3.32,2.63-5.87,2.63-3.32,0-6.16-2.27-6.56-6.31h14.78c.04-.32.04-.54.04-.9,0-5.44-3.17-9.84-8.69-9.84-5.15,0-8.94,4.32-8.94,9.69v.07c0,5.77,4.18,9.69,9.3,9.69M478.15,41.42h2.78v-10.67c0-3.5,2.38-5.84,5.59-5.84s5.15,2.16,5.15,5.62v10.88h2.78v-11.57c0-4.43-2.63-7.46-7.14-7.46-3.21,0-5.15,1.62-6.38,3.64v-3.24h-2.78v18.63ZM469.65,41.42h2.78v-18.63h-2.78v18.63ZM469.47,18.72h3.17v-3.06h-3.17v3.06ZM455.2,41.57h2.45l8.11-18.78h-2.99l-6.31,15.46-6.27-15.46h-3.06l8.07,18.78ZM435.09,41.42h2.78v-7.42c0-5.62,3.32-8.54,7.39-8.54h.22v-2.99c-3.53-.14-6.23,2.09-7.6,5.19v-4.87h-2.78v18.63ZM426.04,41.42h2.85v-25.23h-2.85v25.23ZM406.12,45.82c2.74-.61,4-2.02,4-4.94v-3.24h-3.32v3.78h1.3c.14,1.55-.61,2.49-2.41,3.14l.43,1.26ZM393.07,39.62c-2.52,0-4.69-1.37-4.69-3.71v-.07c0-2.34,1.95-3.86,5.44-3.86,2.27,0,4.11.4,5.48.79v1.8c0,2.96-2.81,5.05-6.23,5.05M392.53,41.82c3.28,0,5.44-1.51,6.74-3.21v2.81h2.67v-11.39c0-2.38-.65-4.18-1.91-5.44-1.37-1.37-3.39-2.05-6.02-2.05s-4.72.61-6.78,1.55l.83,2.27c1.73-.79,3.46-1.37,5.66-1.37,3.5,0,5.55,1.73,5.55,5.08v.65c-1.66-.47-3.35-.79-5.73-.79-4.72,0-7.96,2.09-7.96,6.02v.07c0,3.82,3.5,5.8,6.96,5.8M378.47,41.42h2.78v-18.63h-2.78v18.63ZM378.29,18.72h3.17v-3.06h-3.17v3.06ZM356.74,41.42h2.78v-10.67c0-3.5,2.38-5.84,5.59-5.84s5.15,2.16,5.15,5.62v10.88h2.78v-11.57c0-4.43-2.63-7.46-7.14-7.46-3.21,0-5.15,1.62-6.38,3.64v-3.24h-2.78v18.63ZM342.87,41.42h2.78v-7.42c0-5.62,3.32-8.54,7.39-8.54h.22v-2.99c-3.53-.14-6.23,2.09-7.6,5.19v-4.87h-2.78v18.63ZM328.88,39.37c-3.93,0-6.88-3.24-6.88-7.24v-.07c0-3.93,2.78-7.21,6.81-7.21s6.92,3.28,6.92,7.28v.07c0,3.93-2.81,7.17-6.85,7.17M328.81,41.85c5.62,0,9.77-4.47,9.77-9.73v-.07c0-5.26-4.11-9.66-9.69-9.66s-9.73,4.47-9.73,9.73v.07c0,5.26,4.07,9.66,9.66,9.66M309.21,41.42h2.78v-16.18h5.87v-2.38h-5.91v-1.51c0-2.67,1.08-3.96,3.24-3.96.94,0,1.69.18,2.7.47v-2.41c-.9-.32-1.77-.47-3.06-.47-1.69,0-3.06.5-4,1.44-1.05,1.05-1.62,2.67-1.62,4.79v1.62h-2.56v2.41h2.56v16.18ZM299.66,41.42h2.78v-18.63h-2.78v18.63ZM299.48,18.72h3.17v-3.06h-3.17v3.06ZM290.9,41.42h2.78V15.11h-2.78v26.31ZM276.59,39.62c-2.52,0-4.69-1.37-4.69-3.71v-.07c0-2.34,1.95-3.86,5.44-3.86,2.27,0,4.11.4,5.48.79v1.8c0,2.96-2.81,5.05-6.23,5.05M276.05,41.82c3.28,0,5.44-1.51,6.74-3.21v2.81h2.67v-11.39c0-2.38-.65-4.18-1.91-5.44-1.37-1.37-3.39-2.05-6.02-2.05s-4.72.61-6.78,1.55l.83,2.27c1.73-.79,3.46-1.37,5.66-1.37,3.5,0,5.55,1.73,5.55,5.08v.65c-1.66-.47-3.35-.79-5.73-.79-4.72,0-7.96,2.09-7.96,6.02v.07c0,3.82,3.5,5.8,6.96,5.8M256.48,41.85c4.58,0,7.46-1.77,10.09-4.43l-1.87-1.84c-2.41,2.31-4.69,3.64-8.14,3.64-5.55,0-9.77-4.58-9.77-10.42v-.07c0-5.8,4.18-10.34,9.77-10.34,3.42,0,5.8,1.44,7.93,3.46l1.95-2.09c-2.52-2.38-5.26-4-9.84-4-7.42,0-12.76,5.91-12.76,13.05v.07c0,7.24,5.37,12.97,12.65,12.97M222.93,41.42h2.78v-16.18h5.87v-2.38h-5.91v-1.51c0-2.67,1.08-3.96,3.24-3.96.94,0,1.69.18,2.7.47v-2.41c-.9-.32-1.77-.47-3.06-.47-1.69,0-3.06.5-4,1.44-1.05,1.05-1.62,2.67-1.62,4.79v1.62h-2.56v2.41h2.56v16.18ZM207.9,39.37c-3.93,0-6.88-3.24-6.88-7.24v-.07c0-3.93,2.78-7.21,6.81-7.21s6.92,3.28,6.92,7.28v.07c0,3.93-2.81,7.17-6.85,7.17M207.83,41.85c5.62,0,9.77-4.47,9.77-9.73v-.07c0-5.26-4.11-9.66-9.69-9.66s-9.73,4.47-9.73,9.73v.07c0,5.26,4.07,9.66,9.66,9.66M176.62,38.32l-6.78-15.53h-3.06l8.47,18.56c-1.12,2.63-2.16,3.5-3.82,3.5-1.19,0-2.02-.22-2.92-.68l-.94,2.2c1.26.61,2.41.94,3.96.94,2.81,0,4.61-1.41,6.2-5.26l7.82-19.25h-2.96l-5.98,15.53ZM161.05,41.75c1.33,0,2.38-.29,3.35-.79v-2.38c-.97.47-1.77.65-2.7.65-1.87,0-3.14-.83-3.14-3.1v-10.88h5.91v-2.45h-5.91v-5.62h-2.78v5.62h-2.59v2.45h2.59v11.24c0,3.78,2.27,5.26,5.26,5.26M146.31,41.42h2.78v-18.63h-2.78v18.63ZM146.13,18.72h3.17v-3.06h-3.17v3.06ZM135,41.78c3.71,0,6.63-2.05,6.63-5.59v-.07c0-3.35-3.1-4.47-5.98-5.33-2.49-.76-4.79-1.44-4.79-3.21v-.07c0-1.55,1.41-2.7,3.6-2.7,1.8,0,3.78.68,5.51,1.8l1.26-2.09c-1.91-1.26-4.43-2.05-6.7-2.05-3.68,0-6.34,2.13-6.34,5.33v.07c0,3.42,3.24,4.43,6.16,5.26,2.45.68,4.65,1.41,4.65,3.28v.07c0,1.8-1.62,2.96-3.86,2.96s-4.43-.86-6.45-2.38l-1.41,1.98c2.09,1.69,5.05,2.74,7.71,2.74M114.96,41.42h2.78v-7.42c0-5.62,3.32-8.54,7.39-8.54h.22v-2.99c-3.53-.14-6.23,2.09-7.6,5.19v-4.87h-2.78v18.63ZM96,31.08c.36-3.64,2.81-6.34,6.05-6.34,3.71,0,5.66,2.96,5.95,6.34h-12ZM102.49,41.85c3.53,0,5.8-1.41,7.68-3.5l-1.73-1.55c-1.51,1.59-3.32,2.63-5.87,2.63-3.32,0-6.16-2.27-6.56-6.31h14.78c.04-.32.04-.54.04-.9,0-5.44-3.17-9.84-8.69-9.84-5.15,0-8.94,4.32-8.94,9.69v.07c0,5.77,4.18,9.69,9.3,9.69M81.23,41.57h2.45l8.11-18.78h-2.99l-6.31,15.46-6.27-15.46h-3.06l8.07,18.78ZM66.49,41.42h2.78v-18.63h-2.78v18.63ZM66.31,18.72h3.17v-3.06h-3.17v3.06ZM44.76,41.42h2.78v-10.67c0-3.5,2.38-5.84,5.59-5.84s5.15,2.16,5.15,5.62v10.88h2.78v-11.57c0-4.43-2.63-7.46-7.14-7.46-3.21,0-5.15,1.62-6.38,3.64v-3.24h-2.78v18.63ZM28.68,41.82c6.31,0,10.52-3.82,10.52-11.17v-14.45h-2.85v14.67c0,5.51-2.96,8.33-7.6,8.33s-7.71-3.06-7.71-8.51v-14.49h-2.85v14.67c0,7.14,4.25,10.96,10.49,10.96"/></svg>